<svg xmlns="http://www.w3.org/2000/svg" width="324" height="63" fill="none"><g clip-path="url(#a)"><rect width="62.422" height="62.422" fill="#FF7994" rx="14.475"/><path fill="#FF8B9B" d="M69.787 11.885c.428 1.163 9.747 13.367 4.372 28.696-2.488 7.097-7.675 13.458-14.894 17.78-4.237 7.075-10.529 12.352-17.78 14.893-15.346 5.382-27.551-3.951-28.695-4.372.56-.786 4.17-8.652 12.418-14.177L55.61 24.303c5.523-8.246 13.4-11.863 14.177-12.418Z"/><path fill="#FFDFF4" d="M69.787 11.885c.428 1.163 9.747 13.367 4.372 28.696-2.488 7.097-7.675 13.458-14.894 17.78L40.41 39.504l15.201-15.2c5.523-8.247 13.4-11.864 14.177-12.42Z"/><path fill="#FFDFF4" d="M63.805 34.67c2.596 13.129-4.383 23.29-4.535 23.695-.383.143-10.648 7.115-23.696 4.536-15.593-3.083-21.595-17.243-22.39-18.202 1.072-.494 7.587-5.257 17.28-5.898l9.242-9.242c.644-9.745 5.355-16.1 5.898-17.28.942.78 15.112 6.762 18.201 22.39Z"/><path fill="#fff" d="M63.805 34.67c2.596 13.129-4.383 23.29-4.535 23.695L35.085 34.18l4.62-4.62c.645-9.746 5.356-16.102 5.899-17.28.942.78 15.112 6.76 18.201 22.39Z"/><path fill="#FF8B9B" d="M25.04 24.136c.203 1.19-1.694 16.449 10.315 26.937 9.9 8.644 22.308 7.097 23.915 7.292-.196-1.612 1.353-14.012-7.292-23.915C41.486 22.438 26.237 24.34 25.04 24.136Z"/><path fill="#FFDFF4" d="M51.978 34.45c8.645 9.903 7.096 22.303 7.292 23.915L25.04 24.136c1.197.203 16.446-1.698 26.938 10.314Z"/><path fill="#FF8B9B" d="M22.622 37.104a.96.96 0 0 1-.898.895c-5.5.373-9.518 1.185-12.024-1.312-3.372-3.372-.876-8.644 3.714-7.893-.73-4.667 4.572-7.049 7.893-3.717 2.498 2.499 1.692 6.457 1.315 12.027Z"/><path fill="#fff" d="M20.107 18.349a.913.913 0 0 1-.854.851c-5.232.355-9.054 1.128-11.438-1.248-3.208-3.208-.834-8.223 3.533-7.508-.695-4.44 4.349-6.706 7.508-3.536 2.377 2.377 1.61 6.142 1.251 11.44Z"/><path fill="#FFDFF4" d="M38.292 19.116c-2.42 2.42-6.275 1.641-11.67 1.276a.937.937 0 0 1-.87-.87c-.059-.854-.123-1.667-.179-2.385l-.002-.003c-.275-3.456-.744-7.087 1.456-9.287 3.255-3.258 8.37-.892 7.661 3.607 4.458-.725 6.877 4.387 3.604 7.662Z"/></g><path fill="#FF7994" d="M76.294 32.636V6.505H89.06c2.663 0 4.754.597 6.272 1.792 1.543 1.194 2.314 2.837 2.314 4.927 0 1.518-.423 2.8-1.269 3.845-.821 1.046-1.99 1.805-3.509 2.277v.187c1.742.423 3.11 1.195 4.106 2.314.996 1.12 1.494 2.477 1.494 4.07 0 1.343-.349 2.525-1.046 3.546-.672 1.02-1.642 1.804-2.911 2.352-1.245.547-2.7.82-4.368.82h-13.85Zm11.721-5.6c1.27 0 2.29-.323 3.061-.97.772-.672 1.158-1.53 1.158-2.576 0-1.07-.399-1.929-1.195-2.576-.772-.647-1.78-.97-3.024-.97h-5.749v7.092h5.75Zm-.522-7.839c1.269 0 2.29-.323 3.06-.97.772-.672 1.158-1.531 1.158-2.576 0-1.07-.386-1.929-1.157-2.576-.772-.647-1.792-.97-3.061-.97h-5.227v7.092h5.227ZM108.407 20.802c-1.792-.497-3.186-1.344-4.181-2.538-.995-1.195-1.493-2.638-1.493-4.33 0-2.315.946-4.132 2.837-5.45 1.891-1.32 4.492-1.98 7.802-1.98h10.191v26.132h-5.973V21.399h-2.576a.333.333 0 0 1-.149-.037h-.261l-7.84 11.274h-6.607l8.25-11.834Zm5.599-.149h3.584v-8.96h-3.584c-1.592 0-2.874.411-3.845 1.233-.97.82-1.455 1.903-1.455 3.247 0 1.344.485 2.427 1.455 3.248.971.821 2.253 1.232 3.845 1.232ZM140.277 33.196c-2.24 0-4.293-.398-6.16-1.195a11.006 11.006 0 0 1-4.517-3.658c-1.17-1.643-1.829-3.621-1.978-5.936h5.823c.224 1.693.933 3.024 2.128 3.995 1.195.945 2.725 1.418 4.592 1.418 1.717 0 3.073-.36 4.069-1.082.995-.747 1.493-1.742 1.493-2.987 0-.746-.187-1.406-.56-1.978-.374-.572-.921-1.02-1.643-1.344-.697-.324-1.493-.485-2.389-.485h-3.024v-.747h3.024c.772 0 1.456-.162 2.053-.485a3.889 3.889 0 0 0 1.456-1.381 3.585 3.585 0 0 0 .523-1.904c0-.822-.237-1.543-.71-2.165-.447-.623-1.082-1.095-1.903-1.419-.797-.323-1.718-.485-2.763-.485-1.692 0-3.086.423-4.181 1.269-1.07.821-1.717 1.966-1.941 3.434h-5.786c.299-2.24 1.033-4.118 2.202-5.636a10.735 10.735 0 0 1 4.443-3.36c1.767-.747 3.708-1.12 5.823-1.12 1.916 0 3.683.299 5.301.896 1.643.597 2.937 1.468 3.882 2.613.971 1.145 1.456 2.489 1.456 4.032 0 1.493-.46 2.774-1.381 3.845-.896 1.045-2.128 1.779-3.696 2.202 1.668.348 3.012 1.045 4.032 2.09 1.02 1.046 1.531 2.302 1.531 3.77 0 1.569-.486 2.95-1.456 4.145-.946 1.17-2.265 2.078-3.957 2.725-1.693.622-3.621.933-5.786.933ZM152.9 32.636l9.892-26.131h7.69l9.892 26.13h-6.308l-2.8-7.54h-9.37l-2.837 7.54H152.9Zm9.257-8.25h8.848L166.6 12.814l-4.443 11.572ZM184.348 32.636V6.505h5.973v12.692h11.348V6.505h5.973v26.13h-5.973V19.945h-11.348v12.692h-5.973ZM225.957 33.196c-2.588 0-4.927-.585-7.018-1.755a13.091 13.091 0 0 1-4.927-4.89c-1.17-2.09-1.755-4.417-1.755-6.98 0-2.564.585-4.878 1.755-6.944a12.744 12.744 0 0 1 4.927-4.89c2.091-1.195 4.43-1.792 7.018-1.792s4.928.597 7.018 1.792a12.479 12.479 0 0 1 4.89 4.89c1.195 2.066 1.792 4.38 1.792 6.943 0 2.564-.597 4.89-1.792 6.981-1.169 2.066-2.799 3.696-4.89 4.89-2.09 1.17-4.43 1.755-7.018 1.755Zm0-5.861c1.444 0 2.738-.336 3.883-1.008a7.094 7.094 0 0 0 2.725-2.762c.672-1.195 1.008-2.526 1.008-3.995 0-1.468-.336-2.787-1.008-3.957a7.027 7.027 0 0 0-2.725-2.8c-1.145-.696-2.439-1.045-3.883-1.045-1.443 0-2.737.349-3.882 1.046-1.145.672-2.053 1.605-2.725 2.8-.647 1.17-.971 2.488-.971 3.956 0 1.469.324 2.8.971 3.995a7.441 7.441 0 0 0 2.725 2.762c1.145.672 2.439 1.008 3.882 1.008ZM259.418 32.636v-11.2h-4.293c-3.957 0-6.943-.733-8.959-2.202-1.991-1.468-2.986-3.658-2.986-6.57v-6.16h5.973v8.064c0 2.016.497 3.546 1.493 4.592 1.02 1.02 2.513 1.53 4.479 1.53h4.293V6.505h5.973v26.13h-5.973ZM272.324 32.636V6.505h5.935v12.692h2.24l8.698-12.692h6.533l-8.698 12.58 9.258 13.55h-7.13l-8.698-12.691h-2.203v12.692h-5.935ZM296.525 32.636l9.893-26.131h7.69L324 32.635h-6.309l-2.8-7.54h-9.369l-2.837 7.54h-6.16Zm9.258-8.25h8.847l-4.405-11.572-4.442 11.572Z"/><path fill="#FF8B9B" d="M76 57.062V45.245h.886L81.774 55.7l4.838-10.453h.92v11.8h-.936V47.42l-4.44 9.642h-.78l-4.448-9.642v9.642H76ZM92.435 57.308c-.69 0-1.264-.12-1.723-.361-.453-.241-.792-.558-1.019-.952-.226-.4-.34-.832-.34-1.296 0-.504.106-.925.315-1.264.216-.34.5-.613.854-.82a4.415 4.415 0 0 1 1.184-.468c.492-.11 1.022-.203 1.59-.28.57-.081 1.111-.152 1.625-.213.519-.06.941-.112 1.267-.156l-.348.206c.022-.958-.16-1.669-.547-2.134-.38-.47-1.054-.705-2.02-.705-.68 0-1.24.153-1.683.46-.436.3-.743.768-.92 1.402l-.977-.27c.205-.805.616-1.423 1.235-1.855.618-.432 1.41-.648 2.377-.648.823 0 1.513.158 2.071.476.564.317.956.763 1.177 1.337.094.235.157.512.19.829.033.312.05.626.05.944v5.522h-.87v-2.33l.323.081c-.27.799-.743 1.414-1.416 1.846-.674.433-1.472.649-2.395.649Zm.05-.87c.608 0 1.14-.107 1.599-.32a2.87 2.87 0 0 0 1.11-.91c.287-.395.47-.857.547-1.387a5.73 5.73 0 0 0 .091-.96c.006-.345.008-.6.008-.764l.414.263c-.359.044-.79.09-1.292.14-.497.049-1.005.109-1.524.18-.52.071-.989.161-1.409.27-.26.072-.522.176-.787.313-.26.13-.477.314-.654.55-.171.234-.257.533-.257.894 0 .268.066.536.199.804.138.268.364.49.68.664.314.175.74.263 1.275.263ZM102.598 57.308c-.895 0-1.649-.197-2.262-.591a3.811 3.811 0 0 1-1.4-1.65c-.315-.705-.478-1.517-.489-2.436.011-.936.177-1.753.497-2.454.326-.705.795-1.252 1.408-1.64.614-.389 1.365-.583 2.254-.583.867 0 1.629.208 2.286.623.663.41 1.122.977 1.376 1.699l-.928.336a2.642 2.642 0 0 0-1.069-1.28c-.486-.306-1.044-.46-1.673-.46-.707 0-1.29.162-1.748.485-.459.317-.801.758-1.028 1.32-.226.564-.345 1.215-.356 1.954.017 1.132.285 2.043.804 2.732.524.684 1.3 1.026 2.328 1.026.635 0 1.184-.145 1.648-.435.47-.29.829-.711 1.077-1.264l.945.32c-.348.75-.834 1.321-1.458 1.715-.625.389-1.362.583-2.212.583ZM110.224 57.062v-7.96h-3.239V48.2h7.431v.903h-3.239v7.959h-.953ZM119.669 57.308c-.856 0-1.596-.189-2.22-.566a3.837 3.837 0 0 1-1.45-1.617c-.343-.7-.514-1.526-.514-2.478 0-.968.169-1.802.506-2.502.342-.706.823-1.248 1.441-1.625.624-.377 1.364-.566 2.22-.566.867 0 1.608.197 2.221.59.618.389 1.088.952 1.408 1.69.326.74.48 1.628.464 2.667h-.994v-.328c-.028-1.214-.304-2.139-.829-2.773-.524-.634-1.276-.952-2.253-.952-1.011 0-1.792.331-2.345.993-.546.656-.82 1.586-.82 2.79 0 1.192.274 2.117.82 2.773.553.656 1.329.985 2.328.985.691 0 1.293-.159 1.806-.476.519-.323.931-.782 1.235-1.379l.861.378c-.359.766-.878 1.356-1.557 1.772-.679.416-1.455.624-2.328.624ZM116.14 52.9v-.853h7.066v.853h-7.066ZM129.496 57.308c-.806 0-1.488-.208-2.046-.624-.558-.416-.983-.976-1.276-1.682-.293-.706-.439-1.502-.439-2.388 0-.891.146-1.687.439-2.387.293-.706.726-1.261 1.301-1.666.574-.405 1.278-.607 2.112-.607.812 0 1.505.205 2.079.615.575.41 1.011.968 1.309 1.674.304.706.456 1.496.456 2.371 0 .887-.155 1.685-.464 2.396-.304.706-.748 1.267-1.334 1.682-.58.41-1.292.616-2.137.616ZM125.577 61V48.2h.87v6.827h.083V61h-.953Zm3.861-4.595c.657 0 1.204-.167 1.64-.5.442-.334.774-.785.994-1.354.227-.575.34-1.22.34-1.937 0-.71-.11-1.348-.331-1.911-.216-.57-.544-1.018-.986-1.346-.436-.334-.994-.5-1.674-.5-.657 0-1.206.16-1.648.483-.442.318-.773.76-.994 1.33-.221.569-.332 1.217-.332 1.944 0 .722.108 1.37.323 1.945.221.569.553 1.02.995 1.354.447.328 1.005.492 1.673.492ZM138.907 57.308c-.895 0-1.649-.197-2.262-.591a3.809 3.809 0 0 1-1.4-1.65c-.315-.705-.478-1.517-.489-2.436.011-.936.177-1.753.497-2.454.326-.705.796-1.252 1.409-1.64.613-.389 1.364-.583 2.253-.583.867 0 1.629.208 2.287.623.662.41 1.121.977 1.375 1.699l-.928.336a2.636 2.636 0 0 0-1.069-1.28c-.486-.306-1.044-.46-1.673-.46-.707 0-1.29.162-1.748.485-.459.317-.801.758-1.027 1.32-.227.564-.346 1.215-.357 1.954.017 1.132.285 2.043.804 2.732.525.684 1.301 1.026 2.328 1.026.635 0 1.185-.145 1.648-.435.47-.29.829-.711 1.077-1.264l.945.32c-.348.75-.834 1.321-1.458 1.715-.624.389-1.362.583-2.212.583ZM144.315 57.062V48.2h.961v4.267l4.233-4.267h1.334l-4.432 4.43 5.061 4.431h-1.483l-4.713-4.266v4.267h-.961ZM154.893 57.308c-.691 0-1.265-.12-1.724-.361-.453-.241-.792-.558-1.019-.952a2.588 2.588 0 0 1-.339-1.296c0-.504.105-.925.315-1.264a2.48 2.48 0 0 1 .853-.82 4.42 4.42 0 0 1 1.184-.468c.492-.11 1.022-.203 1.591-.28.569-.081 1.11-.152 1.624-.213.519-.06.942-.112 1.267-.156l-.348.206c.023-.958-.16-1.669-.546-2.134-.381-.47-1.055-.705-2.022-.705-.679 0-1.24.153-1.681.46-.437.3-.743.768-.92 1.402l-.978-.27c.205-.805.616-1.423 1.235-1.855.618-.432 1.411-.648 2.377-.648.823 0 1.514.158 2.072.476.563.317.955.763 1.176 1.337a3.1 3.1 0 0 1 .19.829c.034.312.05.626.05.944v5.522h-.87v-2.33l.323.081c-.27.799-.742 1.414-1.416 1.846-.674.433-1.472.649-2.394.649Zm.049-.87c.608 0 1.141-.107 1.599-.32a2.861 2.861 0 0 0 1.11-.91c.287-.395.47-.857.547-1.387a5.7 5.7 0 0 0 .091-.96c.006-.345.008-.6.008-.764l.415.263c-.359.044-.79.09-1.293.14-.497.049-1.005.109-1.524.18-.519.071-.989.161-1.408.27a4.04 4.04 0 0 0-.787.313c-.26.13-.478.314-.655.55-.171.234-.257.533-.257.894 0 .268.067.536.199.804.138.268.365.49.679.664.315.175.741.263 1.276.263ZM167.101 57.062v-3.463h-2.262a8.25 8.25 0 0 1-.737-.033 10.42 10.42 0 0 1-.671-.098 3.07 3.07 0 0 1-1.566-.788c-.431-.416-.646-.998-.646-1.748 0-.722.199-1.302.597-1.74a2.846 2.846 0 0 1 1.416-.86c.26-.066.519-.105.779-.116.265-.01.497-.016.696-.016h3.347l.016 8.861h-.969Zm-6.197 0 2.618-3.832h1.102l-2.635 3.832h-1.085Zm3.927-4.325h2.27v-3.675h-2.27c-.149 0-.356.005-.621.016a2.858 2.858 0 0 0-.738.123 1.832 1.832 0 0 0-.58.295 1.6 1.6 0 0 0-.48.558c-.127.236-.191.523-.191.862 0 .476.13.856.39 1.14.259.28.588.468.986.567.226.054.447.087.662.098.221.011.412.016.572.016ZM181.469 58.481v-1.42h-7.754V48.2h.952v7.943h4.988V48.2h.952v7.959h1.815v2.322h-.953ZM183.747 57.062V48.2h3.554c.154 0 .367.01.638.033.276.016.538.057.787.123.524.131.933.405 1.226.82.298.416.447.9.447 1.453 0 .295-.044.569-.132.82-.083.246-.21.465-.381.657a1.674 1.674 0 0 1-.266.254 1.814 1.814 0 0 1-.29.172c.166.033.354.118.564.255.32.197.558.456.712.78.155.322.232.694.232 1.115 0 .607-.149 1.1-.447 1.477a2.139 2.139 0 0 1-1.143.763 3.37 3.37 0 0 1-.721.123c-.254.011-.486.017-.696.017h-4.084Zm.961-.854h3.098c.116 0 .268-.008.456-.024.188-.022.353-.05.497-.082.375-.088.646-.266.812-.534a1.67 1.67 0 0 0 .257-.902c0-.432-.13-.785-.39-1.059-.259-.279-.613-.446-1.06-.5a2.395 2.395 0 0 0-.406-.033 10.01 10.01 0 0 0-.39-.008h-2.874v3.142Zm0-4.004h2.783c.133 0 .29-.008.473-.025a2.37 2.37 0 0 0 .488-.106c.321-.11.558-.296.713-.558.154-.268.232-.555.232-.862 0-.344-.083-.642-.249-.894a1.357 1.357 0 0 0-.721-.55 2.635 2.635 0 0 0-.695-.123 9.092 9.092 0 0 0-.448-.024h-2.576v3.142ZM196.187 57.308c-.856 0-1.596-.189-2.22-.566a3.837 3.837 0 0 1-1.45-1.617c-.342-.7-.514-1.526-.514-2.478 0-.968.169-1.802.506-2.502.342-.706.823-1.248 1.441-1.625.624-.377 1.364-.566 2.22-.566.868 0 1.608.197 2.221.59.618.389 1.088.952 1.408 1.69.326.74.481 1.628.464 2.667h-.994v-.328c-.028-1.214-.304-2.139-.829-2.773-.524-.634-1.275-.952-2.253-.952-1.011 0-1.792.331-2.344.993-.547.656-.821 1.586-.821 2.79 0 1.192.274 2.117.821 2.773.552.656 1.328.985 2.327.985.691 0 1.293-.159 1.806-.476.52-.323.931-.782 1.235-1.379l.861.378c-.359.766-.878 1.356-1.557 1.772-.679.416-1.455.624-2.328.624Zm-3.529-4.407v-.853h7.066v.853h-7.066ZM204.541 57.062v-7.96h-3.24V48.2h7.432v.903h-3.24v7.959h-.952ZM213.807 57.308c-.889 0-1.643-.2-2.261-.6a3.836 3.836 0 0 1-1.417-1.657c-.326-.705-.489-1.518-.489-2.437 0-.924.166-1.736.497-2.437.332-.705.807-1.252 1.425-1.64.624-.389 1.373-.583 2.245-.583.89 0 1.643.2 2.262.599.624.394 1.096.94 1.417 1.64.325.701.488 1.508.488 2.421 0 .936-.163 1.756-.488 2.462a3.776 3.776 0 0 1-1.425 1.64c-.624.395-1.376.592-2.254.592Zm0-.92c1.055 0 1.842-.35 2.361-1.05.525-.7.787-1.608.787-2.724 0-1.137-.262-2.045-.787-2.724-.524-.678-1.311-1.017-2.361-1.017-.712 0-1.3.161-1.764.484-.464.317-.812.758-1.044 1.32-.227.559-.34 1.204-.34 1.937 0 1.138.265 2.052.796 2.74.535.69 1.32 1.035 2.352 1.035ZM225.356 57.062v-3.406a5.862 5.862 0 0 1-2.576.574c-.901 0-1.635-.196-2.204-.59-.569-.4-.942-.97-1.119-1.715a5.939 5.939 0 0 1-.107-.722 11.963 11.963 0 0 1-.05-1.116V48.2h.961v1.887c0 .203.006.419.017.648.011.23.036.449.074.657.111.65.378 1.148.804 1.493.431.34 1.03.509 1.798.509.458 0 .9-.058 1.325-.172a3.477 3.477 0 0 0 1.077-.476V48.2h.961v8.861h-.961ZM228.632 57.062V48.2h.952v3.971h5.394V48.2h.952v8.861h-.952v-3.97h-5.394v3.97h-.952ZM238.251 57.062l-.008-8.862h.969v3.463h1.732c.265 0 .511.005.737.016.232.01.445.035.638.074.42.076.798.213 1.135.41.342.197.613.473.812.829.204.355.306.812.306 1.37 0 .75-.196 1.337-.588 1.764-.392.427-.867.7-1.425.82-.232.05-.472.083-.721.1-.243.01-.494.016-.753.016h-2.834Zm.961-.862h1.748c.205 0 .437-.006.696-.016.26-.011.486-.041.68-.09a2.03 2.03 0 0 0 .845-.518c.259-.251.389-.656.389-1.214 0-.547-.124-.952-.373-1.214-.243-.268-.574-.443-.994-.525a3.46 3.46 0 0 0-.613-.082c-.215-.011-.425-.017-.63-.017h-1.748V56.2Zm6.479.861V48.2h.952v8.861h-.952ZM247.977 57.062l3.57-4.48-3.488-4.382h1.16l2.892 3.668 2.874-3.668h1.16l-3.488 4.381 3.571 4.48h-1.176l-2.941-3.766-2.958 3.767h-1.176ZM264.517 57.308c-.895 0-1.649-.197-2.262-.591a3.815 3.815 0 0 1-1.4-1.65c-.315-.705-.478-1.517-.489-2.436.011-.936.177-1.753.498-2.454.325-.705.795-1.252 1.408-1.64.613-.389 1.364-.583 2.253-.583.867 0 1.63.208 2.287.623.663.41 1.121.977 1.375 1.699l-.928.336a2.636 2.636 0 0 0-1.069-1.28c-.486-.306-1.043-.46-1.673-.46-.707 0-1.29.162-1.748.485-.458.317-.801.758-1.027 1.32-.227.564-.346 1.215-.357 1.954.017 1.132.285 2.043.804 2.732.525.684 1.301 1.026 2.328 1.026.635 0 1.185-.145 1.649-.435.469-.29.828-.711 1.077-1.264l.944.32c-.348.75-.834 1.321-1.458 1.715-.624.389-1.362.583-2.212.583ZM273.352 57.308c-.889 0-1.643-.2-2.262-.6a3.84 3.84 0 0 1-1.416-1.657c-.326-.705-.489-1.518-.489-2.437 0-.924.166-1.736.497-2.437.331-.705.806-1.252 1.425-1.64.624-.389 1.372-.583 2.245-.583.889 0 1.643.2 2.262.599a3.72 3.72 0 0 1 1.416 1.64c.326.701.489 1.508.489 2.421 0 .936-.163 1.756-.489 2.462a3.776 3.776 0 0 1-1.425 1.64c-.624.395-1.375.592-2.253.592Zm0-.92c1.055 0 1.842-.35 2.361-1.05.525-.7.787-1.608.787-2.724 0-1.137-.262-2.045-.787-2.724-.525-.678-1.312-1.017-2.361-1.017-.712 0-1.301.161-1.765.484a2.877 2.877 0 0 0-1.043 1.32c-.227.559-.34 1.204-.34 1.937 0 1.138.265 2.052.795 2.74.536.69 1.32 1.035 2.353 1.035ZM282.888 57.308c-.834 0-1.55-.175-2.146-.525-.597-.35-1.058-.884-1.384-1.6-.326-.722-.494-1.639-.505-2.75-.011-.464.006-.967.05-1.509.044-.541.105-1.053.182-1.534.083-.482.171-.864.265-1.149.133-.416.331-.801.597-1.157.27-.36.588-.656.952-.886a4.176 4.176 0 0 1 1.152-.517c.436-.126.892-.224 1.367-.295.475-.077.939-.14 1.392-.19.452-.054.864-.12 1.234-.196l.116.878c-.298.055-.657.11-1.077.164-.42.05-.859.112-1.317.189-.459.07-.898.167-1.318.287-.419.12-.778.273-1.077.46-.463.278-.82.705-1.068 1.28-.249.574-.403 1.244-.464 2.01a3.39 3.39 0 0 1 1.392-1.248 4.304 4.304 0 0 1 1.938-.434c.807 0 1.502.183 2.088.55a3.585 3.585 0 0 1 1.359 1.534c.32.65.48 1.411.48 2.28 0 .881-.168 1.65-.505 2.306a3.642 3.642 0 0 1-1.45 1.518c-.63.361-1.381.54-2.253.534Zm.082-.92c1.017 0 1.787-.311 2.312-.935.53-.629.795-1.463.795-2.502 0-1.067-.273-1.907-.82-2.52-.547-.612-1.315-.918-2.303-.918-.989 0-1.751.306-2.287.919-.53.612-.795 1.452-.795 2.519 0 1.061.265 1.9.795 2.519.53.612 1.298.919 2.303.919ZM288.929 57.062l-.008-8.862h.969v3.463h1.731c.266 0 .511.005.738.016.232.01.444.035.638.074.419.076.798.213 1.135.41.342.197.613.473.812.829.204.355.306.812.306 1.37 0 .75-.196 1.337-.588 1.764-.392.427-.867.7-1.425.82-.232.05-.472.083-.721.1-.243.01-.494.016-.754.016h-2.833Zm.961-.862h1.748c.204 0 .436-.006.696-.016.259-.011.486-.041.679-.09.31-.094.591-.266.845-.518.26-.251.39-.656.39-1.214 0-.547-.125-.952-.373-1.214-.243-.268-.575-.443-.994-.525a3.46 3.46 0 0 0-.613-.082c-.216-.011-.426-.017-.63-.017h-1.748V56.2Zm6.478.861V48.2h.953v8.861h-.953ZM302.142 57.062v-7.96h-3.239V48.2h7.431v.903h-3.239v7.959h-.953ZM314.793 48.2v8.861h-.936v-7.277l-5.12 7.278h-.836V48.2h.936v7.245l5.12-7.245h.836ZM320.678 47.133c-.37 0-.71-.09-1.019-.27a2.08 2.08 0 0 1-.729-.722 1.937 1.937 0 0 1-.265-1.002h.828c0 .318.116.594.348.83.238.229.517.344.837.344.331 0 .61-.115.837-.345.232-.235.348-.511.348-.829h.828c0 .367-.091.7-.273 1.002a2 2 0 0 1-.729.722c-.304.18-.641.27-1.011.27ZM324 48.2v8.861h-.936v-7.277l-5.12 7.278h-.837V48.2h.936v7.245l5.12-7.245H324Z"/><defs><clipPath id="a"><rect width="62.422" height="62.422" fill="#fff" rx="14.475"/></clipPath></defs></svg>