<svg xmlns="http://www.w3.org/2000/svg" viewBox="0 0 64 64"><g data-name="07-Flower shop"><path fill="#cc9f56" d="M21 18v1h-4V1h4v1zM47 6v13h-4V1h4z"/><path fill="#ffa1c8" d="M35.21 6.79a2.707 2.707 0 0 1 .46 3.21A2.7 2.7 0 0 1 32 13.67 2.7 2.7 0 0 1 28.33 10 2.7 2.7 0 0 1 32 6.33a2.707 2.707 0 0 1 3.21.46z"/><path fill="#e9edf5" d="M43 2v16H21V2zm-7.33 8A2.7 2.7 0 0 0 32 6.33 2.7 2.7 0 0 0 28.33 10 2.7 2.7 0 0 0 32 13.67 2.7 2.7 0 0 0 35.67 10z"/><path fill="#cc9f56" d="M63 53v4H45v-4h17z"/><path fill="#fad17f" d="M62 57v6H46v-6z"/><path fill="#edc472" d="M62 57v3H46v-3z"/><path fill="#a7e340" d="M56 48.44a4.764 4.764 0 0 1 1.1.67A3.824 3.824 0 0 1 58 49a4 4 0 0 1 4 4H46a4 4 0 0 1 4-4 3.824 3.824 0 0 1 .9.11A4.949 4.949 0 0 1 54 48a4.794 4.794 0 0 1 2 .44z"/><path fill="#ffa1c8" d="M59 22v5a3 3 0 0 1-6 0v-5z"/><path fill="#e9edf5" d="M56 30v18.44a4.794 4.794 0 0 0-2-.44 4.949 4.949 0 0 0-3.1 1.11A3.824 3.824 0 0 0 50 49a4 4 0 0 0-4 4h-1v4h1v3h-5V34H23v26h-5v-3h1v-4h-1a4 4 0 0 0-4-4 3.824 3.824 0 0 0-.9.11A4.949 4.949 0 0 0 10 48a4.794 4.794 0 0 0-2 .44V30a3 3 0 0 0 3-3 3 3 0 0 0 6 0 3 3 0 0 0 6 0 3 3 0 0 0 6 0 3 3 0 0 0 6 0 3 3 0 0 0 6 0 3 3 0 0 0 6 0 3 3 0 0 0 6 0 3 3 0 0 0 3 3zm-4 14V34h-7v10zm-33 0V34h-7v10z"/><path fill="#cdd2e1" d="M53 27a3 3 0 0 1-6 0 3 3 0 0 1-6 0 3 3 0 0 1-6 0 3 3 0 0 1-6 0 3 3 0 0 1-6 0 3 3 0 0 1-6 0 3 3 0 0 1-6 0 3 3 0 0 1-3 3v2a3 3 0 0 0 3-3 3 3 0 0 0 6 0 3 3 0 0 0 6 0 3 3 0 0 0 6 0 3 3 0 0 0 6 0 3 3 0 0 0 6 0 3 3 0 0 0 6 0 3 3 0 0 0 6 0 3 3 0 0 0 3 3v-2a3 3 0 0 1-3-3z"/><path fill="#ff73a5" d="M53 22v5a3 3 0 0 1-6 0v-5z"/><path fill="#96e8ff" d="M45 34h7v10h-7z"/><path fill="#19cffc" d="M45 34v3h4v7h3V34z"/><path fill="#ffa1c8" d="M47 22v5a3 3 0 0 1-6 0v-5z"/><path fill="#ffb9d5" d="M55 6h-8v13h-4v-1H21v1h-4V6H9L5 22h54z"/><g fill="#ffa1c8"><path d="M58.5 22h.5L55 6h-8v2h8zM17 21h4v-1h22v1h4v-2h-4v-1H21v1h-4zM9 8h8V6H9L5 22h.5z"/></g><path fill="#96e8ff" d="M23 34h18v26H23z"/><path fill="#19cffc" d="M23 34v3h15v23h3V34z"/><path fill="#ff73a5" d="M41 22v5a3 3 0 0 1-6 0v-5z"/><path fill="#ffa1c8" d="M35 22v5a3 3 0 0 1-6 0v-5z"/><path fill="#ff73a5" d="M29 22v5a3 3 0 0 1-6 0v-5z"/><path fill="#ffa1c8" d="M23 22v5a3 3 0 0 1-6 0v-5z"/><path fill="#cc9f56" d="M19 53v4H1v-4h17z"/><path fill="#96e8ff" d="M12 34h7v10h-7z"/><path fill="#fad17f" d="M18 60v3H2v-6h16z"/><path fill="#a7e340" d="M8 48.44a4.794 4.794 0 0 1 2-.44 4.949 4.949 0 0 1 3.1 1.11A3.824 3.824 0 0 1 14 49a4 4 0 0 1 4 4H2a4 4 0 0 1 4-4 3.824 3.824 0 0 1 .9.11 4.764 4.764 0 0 1 1.1-.67z"/><path fill="#ff73a5" d="M17 22v5a3 3 0 0 1-6 0v-5z"/><path fill="#ffa1c8" d="M11 22v5a3 3 0 0 1-6 0v-5z"/><path fill="#19cffc" d="M12 34v3h4v7h3V34z"/><path fill="#edc472" d="M18 57v3H2v-3z"/><path d="M63 52h-.1a4.99 4.99 0 0 0-5.551-3.954c-.115-.079-.23-.146-.344-.213V30.858A4 4 0 0 0 60 27v-5h-.025a.989.989 0 0 0-.005-.243l-4-16A1 1 0 0 0 55 5h-7V1a1 1 0 0 0-1-1h-4a1 1 0 0 0-1 1H22a1 1 0 0 0-1-1h-4a1 1 0 0 0-1 1v4H9a1 1 0 0 0-.97.757l-4 16a.989.989 0 0 0 0 .243H4v5a4 4 0 0 0 3 3.858v16.976c-.115.067-.23.134-.344.212A4.985 4.985 0 0 0 1.105 52H1a1 1 0 0 0-1 1v4a1 1 0 0 0 1 1v5a1 1 0 0 0 1 1h16a1 1 0 0 0 1-1v-2h26v2a1 1 0 0 0 1 1h16a1 1 0 0 0 1-1v-5a1 1 0 0 0 1-1v-4a1 1 0 0 0-1-1zm-1 4H46v-2h16zm-1.188-4H47.188a2.924 2.924 0 0 1 3.478-1.918 1 1 0 0 0 .858-.191A3.954 3.954 0 0 1 54 49a4.071 4.071 0 0 1 2.479.893 1 1 0 0 0 .855.189A2.923 2.923 0 0 1 60.812 52zM56 29a2 2 0 0 1-2-2v-4h4v4a2 2 0 0 1-2 2zm-44-6h4v4a2 2 0 0 1-4 0zm6 0h4v4a2 2 0 0 1-4 0zm6 0h4v4a2 2 0 0 1-4 0zm6 0h4v4a2 2 0 0 1-4 0zm6 0h4v4a2 2 0 0 1-4 0zm6 0h4v4a2 2 0 0 1-4 0zm6 0h4v4a2 2 0 0 1-4 0zM44 2h2v16h-2zm-2 1v14H22V3zM18 2h2v16h-2zM9.781 7H16v12a1 1 0 0 0 1 1h4a1 1 0 0 0 1-1h20a1 1 0 0 0 1 1h4a1 1 0 0 0 1-1V7h6.219l3.5 14H6.281zM6 27v-4h4v4a2 2 0 0 1-4 0zm.666 23.082a1 1 0 0 0 .855-.189 3.823 3.823 0 0 1 .9-.544A3.762 3.762 0 0 1 10 49a3.954 3.954 0 0 1 2.476.891 1 1 0 0 0 .858.191A2.923 2.923 0 0 1 16.812 52H3.188a2.924 2.924 0 0 1 3.478-1.918zM2 56v-2h16v2zm1 6v-4h14v4zm37-3H24V35h16zm2 0V34a1 1 0 0 0-1-1H23a1 1 0 0 0-1 1v25h-3v-1a1 1 0 0 0 1-1v-4a1 1 0 0 0-1-1h-.1a4.987 4.987 0 0 0-5.551-3.954A5.978 5.978 0 0 0 9 47.1V30.858a3.976 3.976 0 0 0 2-1.24 3.947 3.947 0 0 0 6 0 3.947 3.947 0 0 0 6 0 3.947 3.947 0 0 0 6 0 3.947 3.947 0 0 0 6 0 3.947 3.947 0 0 0 6 0 3.947 3.947 0 0 0 6 0 3.947 3.947 0 0 0 6 0 3.976 3.976 0 0 0 2 1.24v16.236a5.915 5.915 0 0 0-4.344.952A4.987 4.987 0 0 0 45.105 52H45a1 1 0 0 0-1 1v4a1 1 0 0 0 1 1v1zm19 3H47v-4h14z"/><path d="M28.083 13.917a3.677 3.677 0 0 0 3.917.85A3.7 3.7 0 0 0 36.767 10 3.7 3.7 0 0 0 32 5.233 3.7 3.7 0 0 0 27.233 10a3.678 3.678 0 0 0 .85 3.917zm1.125-4.395a1.7 1.7 0 0 1 2.314-2.314 1 1 0 0 0 .956 0 1.7 1.7 0 0 1 2.314 2.314 1 1 0 0 0 0 .956 1.7 1.7 0 0 1-2.314 2.314 1 1 0 0 0-.956 0 1.7 1.7 0 0 1-2.314-2.314 1 1 0 0 0 0-.956z"/><path d="M31 9h2v2h-2zM19 33h-7a1 1 0 0 0-1 1v10a1 1 0 0 0 1 1h7a1 1 0 0 0 1-1V34a1 1 0 0 0-1-1zm-1 10h-5v-8h5zM45 45h7a1 1 0 0 0 1-1V34a1 1 0 0 0-1-1h-7a1 1 0 0 0-1 1v10a1 1 0 0 0 1 1zm1-10h5v8h-5zM37 43h2v8h-2z"/></g></svg>