<svg xmlns="http://www.w3.org/2000/svg" width="63" height="63" fill="none"><g clip-path="url(#a)"><rect width="62.422" height="62.422" fill="#FF7994" rx="14.475"/><path fill="#FF8B9B" d="M69.787 11.885c.428 1.163 9.747 13.367 4.372 28.696-2.488 7.097-7.675 13.458-14.894 17.78-4.237 7.075-10.529 12.352-17.78 14.893-15.346 5.382-27.551-3.951-28.695-4.372.56-.786 4.17-8.652 12.418-14.177L55.61 24.303c5.523-8.246 13.4-11.863 14.177-12.418Z"/><path fill="#FFDFF4" d="M69.787 11.885c.428 1.163 9.747 13.367 4.372 28.696-2.488 7.097-7.675 13.458-14.894 17.78L40.41 39.504l15.201-15.2c5.523-8.247 13.4-11.864 14.177-12.42Z"/><path fill="#FFDFF4" d="M63.805 34.67c2.596 13.129-4.383 23.29-4.535 23.695-.383.143-10.648 7.115-23.696 4.536-15.593-3.083-21.595-17.243-22.39-18.202 1.072-.494 7.587-5.257 17.28-5.898l9.242-9.242c.644-9.745 5.355-16.1 5.898-17.28.942.78 15.112 6.762 18.201 22.39Z"/><path fill="#fff" d="M63.805 34.67c2.596 13.129-4.383 23.29-4.535 23.695L35.085 34.18l4.62-4.62c.645-9.746 5.356-16.102 5.899-17.28.942.78 15.112 6.76 18.201 22.39Z"/><path fill="#FF8B9B" d="M25.04 24.136c.203 1.19-1.694 16.449 10.315 26.937 9.9 8.644 22.308 7.097 23.915 7.292-.196-1.612 1.353-14.012-7.292-23.915C41.486 22.438 26.237 24.34 25.04 24.136Z"/><path fill="#FFDFF4" d="M51.978 34.45c8.645 9.903 7.096 22.303 7.292 23.915L25.04 24.136c1.197.203 16.446-1.698 26.938 10.314Z"/><path fill="#FF8B9B" d="M22.622 37.104a.96.96 0 0 1-.898.895c-5.5.373-9.518 1.185-12.024-1.312-3.372-3.372-.876-8.644 3.714-7.893-.73-4.667 4.572-7.049 7.893-3.717 2.498 2.499 1.692 6.457 1.315 12.027Z"/><path fill="#fff" d="M20.107 18.349a.913.913 0 0 1-.854.851c-5.232.355-9.054 1.128-11.438-1.248-3.208-3.208-.834-8.223 3.533-7.508-.695-4.44 4.349-6.706 7.508-3.536 2.377 2.377 1.61 6.142 1.251 11.44Z"/><path fill="#FFDFF4" d="M38.292 19.116c-2.42 2.42-6.275 1.641-11.67 1.276a.937.937 0 0 1-.87-.87c-.059-.854-.123-1.667-.179-2.385l-.002-.003c-.275-3.456-.744-7.087 1.456-9.287 3.255-3.258 8.37-.892 7.661 3.607 4.458-.725 6.877 4.387 3.604 7.662Z"/></g><defs><clipPath id="a"><rect width="62.422" height="62.422" fill="#fff" rx="14.475"/></clipPath></defs></svg>