<svg xmlns="http://www.w3.org/2000/svg" width="36" height="36" fill="none"><path fill="#FF7020" d="M36 18a18 18 0 1 1-36 0 18 18 0 0 1 36 0Zm-17.354-4.711c-1.75.729-5.252 2.236-10.499 4.522-.85.337-1.298.67-1.338.994-.068.547.618.763 1.552 1.058l.394.124c.918.299 2.155.648 2.796.661.585.014 1.236-.225 1.954-.72 4.902-3.31 7.434-4.981 7.591-5.017.113-.027.27-.059.373.036.106.092.095.27.084.317-.068.29-2.761 2.792-4.154 4.088-.434.405-.742.691-.805.756-.139.142-.28.282-.423.419-.855.823-1.494 1.44.034 2.448.735.486 1.325.884 1.912 1.284.639.437 1.278.871 2.106 1.416.21.135.412.281.608.42.744.532 1.417 1.009 2.243.932.481-.045.978-.495 1.23-1.845.597-3.188 1.769-10.093 2.039-12.94a3.202 3.202 0 0 0-.03-.709.758.758 0 0 0-.256-.488 1.184 1.184 0 0 0-.697-.209c-.675.011-1.717.373-6.714 2.453Z"/></svg>